<svg width="180" height="204" viewBox="0 0 180 204" fill="none" xmlns="http://www.w3.org/2000/svg">
<path d="M4.5343 49.4387L87.2853 1.66165C89.2277 0.540173 91.6239 0.553407 93.5539 1.69627L128.41 22.3376C132.497 24.7577 132.464 30.6831 128.351 33.0578L16.856 97.4296C12.7165 99.8195 12.7165 105.794 16.856 108.184L87.325 148.87C89.2462 149.979 91.6132 149.979 93.5343 148.87L124.743 130.851C128.883 128.461 128.883 122.486 124.743 120.096L104.111 108.184C99.9714 105.794 99.9713 99.8195 104.111 97.4296L170.116 59.3216C174.255 56.9317 179.43 59.9191 179.43 64.6991V148.957C179.43 151.176 178.246 153.226 176.325 154.335L93.5343 202.134C91.6132 203.243 89.2462 203.243 87.325 202.134L4.53434 154.335C2.61317 153.226 1.42969 151.176 1.42969 148.957V54.8161C1.42969 52.5977 2.61316 50.5479 4.5343 49.4387Z" stroke="white"/>
</svg>
