<svg width="434" height="110" viewBox="0 0 434 110" fill="none" xmlns="http://www.w3.org/2000/svg">
<g clip-path="url(#clip0_2833_836)">
<path d="M98.6267 46.2162L59.3189 75.5185C51.9687 80.9977 53.6014 83.3801 53.6014 86.0006C56.2695 96.2921 62.1776 100.93 64.7981 101.962H92.1945C99.4367 100.818 102.677 93.7034 103.391 90.2888V50.7426C103.582 43.5004 100.294 44.7075 98.6267 46.2162Z" fill="white"/>
<path d="M100.056 35.9725L59.3189 66.2276C55.4695 69.0865 55.8091 65.6717 56.4601 63.6069C63.2099 48.1221 77.0431 16.3424 78.3772 13.1024C81.7124 5.95557 87.6682 7.14671 90.2887 7.14671C99.3414 7.14671 101.724 15.4847 102.438 17.1523C104.344 31.6367 101.644 35.7342 100.056 35.9725Z" fill="white"/>
<path d="M50.7426 98.1502L19.5346 35.9725C18.865 34.6385 17.3497 34.146 16.6758 34.0665H10.2436C6.81305 33.8759 6.74957 37.4811 7.14665 39.3075C7.06724 50.2661 6.95606 74.9467 7.14665 86.0006C6.38431 96.6734 15.0876 101.089 19.5346 101.962H48.3603C52.172 101.962 51.5367 99.4208 50.7426 98.1502Z" fill="white"/>
<path d="M71.2303 10.4818L47.4073 66.2276C45.8599 69.8487 43.1097 66.7835 41.9281 64.7982C37.6399 56.3013 28.7778 38.6405 27.6343 35.9725C26.1096 29.3021 22.0756 27.158 20.2492 26.9197H11.1965C9.29064 27.6821 7.70249 26.6021 7.14665 25.9668V20.2493C9.05254 10.5296 16.1994 7.78199 19.5346 7.62317C34.2254 7.62312 64.6075 7.62304 68.6097 7.62317C72.1656 6.67038 71.8384 9.1319 71.2303 10.4818Z" fill="white"/>
<path d="M141.713 32.0228L155.23 70.3514H155.764L169.281 32.0228H175.062L158.343 77.5547H152.652L135.933 32.0228H141.713ZM192.581 78.2661C189.29 78.2661 186.452 77.5399 184.066 76.0874C181.694 74.62 179.864 72.5746 178.574 69.9512C177.3 67.313 176.662 64.2449 176.662 60.747C176.662 57.2491 177.3 54.1662 178.574 51.4984C179.864 48.8156 181.657 46.7258 183.955 45.2288C186.267 43.717 188.964 42.9611 192.047 42.9611C193.826 42.9611 195.582 43.2576 197.316 43.8504C199.05 44.4433 200.629 45.4067 202.052 46.7406C203.475 48.0597 204.609 49.8087 205.453 51.9875C206.298 54.1662 206.721 56.8489 206.721 60.0356V62.2588H180.397V57.7234H201.385C201.385 55.7966 200.999 54.0773 200.229 52.5655C199.473 51.0537 198.391 49.8606 196.983 48.9861C195.59 48.1116 193.944 47.6744 192.047 47.6744C189.957 47.6744 188.149 48.1931 186.623 49.2306C185.111 50.2533 183.947 51.5873 183.132 53.2325C182.317 54.8777 181.909 56.6414 181.909 58.5238V61.5474C181.909 64.1263 182.354 66.3125 183.243 68.1059C184.147 69.8845 185.4 71.2407 187.001 72.1745C188.601 73.0934 190.461 73.5529 192.581 73.5529C193.959 73.5529 195.204 73.3602 196.316 72.9748C197.442 72.5746 198.413 71.9818 199.228 71.1962C200.044 70.3959 200.673 69.4028 201.118 68.2171L206.187 69.64C205.653 71.3593 204.757 72.8711 203.497 74.1754C202.237 75.4648 200.681 76.4727 198.828 77.199C196.975 77.9104 194.893 78.2661 192.581 78.2661ZM219.949 32.0228V77.5547H214.702V32.0228H219.949ZM243.432 78.2661C240.349 78.2661 237.644 77.5325 235.317 76.0651C233.005 74.5978 231.197 72.545 229.892 69.9068C228.603 67.2685 227.958 64.1856 227.958 60.6581C227.958 57.1009 228.603 53.9958 229.892 51.3427C231.197 48.6897 233.005 46.6295 235.317 45.1621C237.644 43.6948 240.349 42.9611 243.432 42.9611C246.515 42.9611 249.212 43.6948 251.524 45.1621C253.851 46.6295 255.66 48.6897 256.949 51.3427C258.253 53.9958 258.906 57.1009 258.906 60.6581C258.906 64.1856 258.253 67.2685 256.949 69.9068C255.66 72.545 253.851 74.5978 251.524 76.0651C249.212 77.5325 246.515 78.2661 243.432 78.2661ZM243.432 73.5529C245.774 73.5529 247.7 72.9526 249.212 71.752C250.724 70.5515 251.843 68.973 252.569 67.0165C253.296 65.0601 253.659 62.9406 253.659 60.6581C253.659 58.3756 253.296 56.2487 252.569 54.2774C251.843 52.3061 250.724 50.7128 249.212 49.4974C247.7 48.2821 245.774 47.6744 243.432 47.6744C241.09 47.6744 239.163 48.2821 237.651 49.4974C236.14 50.7128 235.021 52.3061 234.294 54.2774C233.568 56.2487 233.205 58.3756 233.205 60.6581C233.205 62.9406 233.568 65.0601 234.294 67.0165C235.021 68.973 236.14 70.5515 237.651 71.752C239.163 72.9526 241.09 73.5529 243.432 73.5529ZM288.436 63.5928V43.4058H293.683V77.5547H288.436V71.7743H288.08C287.28 73.5084 286.035 74.9831 284.345 76.1985C282.655 77.3991 280.521 77.9993 277.942 77.9993C275.808 77.9993 273.911 77.5325 272.251 76.5987C270.591 75.6501 269.286 74.2272 268.338 72.3301C267.389 70.4181 266.915 68.0096 266.915 65.1046V43.4058H272.162V64.7488C272.162 67.2389 272.858 69.225 274.251 70.7071C275.659 72.1893 277.453 72.9304 279.632 72.9304C280.936 72.9304 282.263 72.5969 283.611 71.9299C284.975 71.2629 286.116 70.2402 287.035 68.8618C287.969 67.4834 288.436 65.7271 288.436 63.5928ZM303.292 77.5547V43.4058H308.361V48.5637H308.717C309.34 46.874 310.466 45.503 312.096 44.4507C313.727 43.3984 315.565 42.8722 317.61 42.8722C317.995 42.8722 318.477 42.8796 319.055 42.8944C319.633 42.9092 320.071 42.9315 320.367 42.9611V48.2969C320.189 48.2524 319.781 48.1857 319.144 48.0968C318.522 47.993 317.862 47.9412 317.165 47.9412C315.505 47.9412 314.023 48.2895 312.719 48.9861C311.43 49.6679 310.407 50.6165 309.651 51.8318C308.91 53.0324 308.539 54.4034 308.539 55.9448V77.5547H303.292ZM325.742 77.5547V32.0228H343.705C347.159 32.0228 350.101 32.6824 352.532 34.0015C354.962 35.3058 356.815 37.1214 358.09 39.4484C359.379 41.7606 360.024 44.4285 360.024 47.4521C360.024 50.4757 359.372 53.1435 358.067 55.4557C356.763 57.7679 354.873 59.5687 352.398 60.8582C349.938 62.1477 346.959 62.7924 343.461 62.7924H332.011V55.0778H341.905C343.757 55.0778 345.284 54.7591 346.484 54.1218C347.7 53.4696 348.604 52.5729 349.197 51.4317C349.804 50.2756 350.108 48.949 350.108 47.4521C350.108 45.9403 349.804 44.6211 349.197 43.4947C348.604 42.3534 347.7 41.4716 346.484 40.849C345.269 40.2117 343.728 39.8931 341.86 39.8931H335.368V77.5547H325.742ZM374.92 78.1994C372.741 78.1994 370.799 77.8215 369.095 77.0656C367.39 76.2949 366.041 75.161 365.048 73.664C364.07 72.1522 363.581 70.2699 363.581 68.017C363.581 66.1198 363.929 64.5265 364.626 63.237C365.323 61.9476 366.271 60.9101 367.472 60.1245C368.672 59.339 370.036 58.7461 371.563 58.3459C373.104 57.9457 374.72 57.6641 376.409 57.5011C378.395 57.2936 379.996 57.1009 381.211 56.923C382.427 56.7304 383.309 56.4488 383.857 56.0782C384.405 55.7077 384.68 55.1593 384.68 54.433V54.2996C384.68 52.8916 384.235 51.8022 383.346 51.0315C382.471 50.2607 381.226 49.8754 379.611 49.8754C377.906 49.8754 376.55 50.2533 375.542 51.0092C374.534 51.7503 373.867 52.6841 373.541 53.8105L364.782 53.0991C365.226 51.0241 366.101 49.2306 367.405 47.7188C368.709 46.1922 370.392 45.0213 372.452 44.2061C374.527 43.3761 376.928 42.9611 379.655 42.9611C381.552 42.9611 383.368 43.1834 385.102 43.6281C386.851 44.0727 388.4 44.7619 389.749 45.6957C391.112 46.6295 392.187 47.83 392.972 49.2973C393.758 50.7499 394.151 52.4914 394.151 54.522V77.5547H385.169V72.8192H384.902C384.354 73.8863 383.62 74.8275 382.701 75.6427C381.782 76.4431 380.678 77.073 379.388 77.5325C378.099 77.9771 376.609 78.1994 374.92 78.1994ZM377.632 71.6631C379.025 71.6631 380.255 71.3889 381.323 70.8405C382.39 70.2773 383.227 69.5214 383.835 68.5728C384.442 67.6242 384.746 66.5497 384.746 65.3491V61.7252C384.45 61.9179 384.042 62.0958 383.524 62.2588C383.02 62.407 382.449 62.5478 381.812 62.6812C381.174 62.7998 380.537 62.911 379.9 63.0147C379.262 63.1036 378.684 63.1852 378.166 63.2593C377.054 63.4223 376.083 63.6817 375.253 64.0374C374.423 64.3931 373.778 64.8748 373.319 65.4825C372.859 66.0754 372.63 66.8165 372.63 67.7057C372.63 68.9952 373.097 69.9809 374.03 70.6627C374.979 71.3296 376.179 71.6631 377.632 71.6631ZM406.123 90.3605C404.922 90.3605 403.796 90.2642 402.743 90.0715C401.706 89.8937 400.846 89.6639 400.164 89.3823L402.299 82.3124C403.41 82.6533 404.411 82.8386 405.3 82.8682C406.204 82.8979 406.982 82.6904 407.635 82.2457C408.302 81.8011 408.842 81.0452 409.258 79.978L409.813 78.5329L397.563 43.4058H407.523L414.593 68.4839H414.949L422.086 43.4058H432.112L418.84 81.2453C418.202 83.0831 417.335 84.6839 416.238 86.0475C415.156 87.4259 413.785 88.4856 412.125 89.2267C410.465 89.9826 408.465 90.3605 406.123 90.3605Z" fill="white"/>
</g>
<defs>
<clipPath id="clip0_2833_836">
<rect width="433.332" height="109.109" fill="white"/>
</clipPath>
</defs>
</svg>
