<svg width="685" height="459" viewBox="0 0 685 459" fill="none" xmlns="http://www.w3.org/2000/svg">
<path d="M329.361 378.052L314.05 380.101L306.142 318.107C305.131 313.38 300.438 311.286 296.855 308.397L298.754 298.265L308.675 290.455L319.018 290.877L326.617 278.635L343.714 281.379L343.82 294.935C348.67 300.146 347.79 307.14 344.132 309.332C344.466 315.859 343.276 321.271 338.938 321.125C336.311 328.185 334.07 336.66 330.327 339.627L329.361 378.052Z" fill="#008000" stroke="black" stroke-linecap="round"/>
<path d="M239.71 323.433C236.527 323.002 235.405 318.724 232.801 316.256C227.668 311.393 217.973 315.007 210.242 319.777C200.827 315.072 199.551 310.835 197.816 306.928C199.7 301.847 198.417 295.17 200.972 289.771C203.253 284.948 207.222 280.484 214.183 276.656L222.684 258.833C229.98 256.421 236.606 255.503 242.317 253.491C247.811 251.555 252.758 248.389 255.769 244.345C266.653 237.623 280.164 229.004 288.51 231.137C288.394 233.875 288.382 236.592 290.071 238.97C292.901 240.892 292.299 244.078 291.721 247.255L308.541 269.869L314.947 271.999C315.883 270.931 320.455 265.285 322.711 277.733L326.525 278.549L319.166 290.96L308.74 290.408L298.705 298.242L283.597 296.448C274.912 296.298 274.117 297.988 270.418 299.001L236.888 298.043L239.71 323.433Z" fill="#008000" stroke="black" stroke-linecap="round"/>
<path d="M154.783 410.112L161.18 410.716L212.025 396.325L230.269 398.37L232.911 387.562C232.36 378.916 225.02 370.07 234.948 361.732C235.871 355.427 235.36 348.565 242.152 344.542L239.831 323.279C237.036 323.339 235.869 320.438 234.404 317.921C231.148 312.322 220.229 312.983 210.14 319.87C205.336 316.472 199.739 314.133 197.859 306.837C191.118 304.351 185.869 305.702 181.53 309.397L182.315 302.123C181.258 299.358 177.463 300.153 172.999 301.818C171.874 301.945 172.662 301.818 174.893 302.743C178.957 301.107 175.512 299.471 175.602 297.835C176.623 296.696 177.003 295.054 178.488 293.234C181.755 288.662 170.476 286.011 171.984 280.578C169.884 278.717 173.494 277.499 177.143 276.738C185.488 275.882 180.733 277.418 184.198 281.335C190.751 281.335 183.834 286.171 184.198 284.129C185.448 286.321 185.945 283.72 188.683 282.954C189.919 286.249 195.581 285.718 196.917 282.954C188.333 281.247 196.917 282.725 198.271 282.423C201.572 281.768 203.067 282.423 202.31 284.152C199.155 292.551 202.31 284.564 202.968 280.337C203.201 275.484 203.343 280.337 203.031 285.597C207.417 286.778 205.021 297.052 200.904 298.724L206.941 302.515C208.27 301.474 211.999 302.384 214.42 308.991C214.42 308.991 220.44 312.774 220.309 317.538C220.205 321.317 217.652 321.919 216.961 324.848L216.452 336.334L154.783 410.112Z" fill="#008000" stroke="black" stroke-linecap="round"/>
<path d="M11.5004 244.956H29.8514C33.8094 239.669 39.6394 241.4 46.2814 246.173L56.8764 246.958L59.2124 249.961L51.5384 252.63C46.2864 251.508 41.5474 249.487 37.1914 246.795C34.1164 248.618 30.5994 249.707 26.1814 249.293L24.1794 252.63L8.23438 253.297L11.5004 244.956Z" fill="#008000" stroke="black" stroke-linecap="round"/>
<path d="M301.914 383.412C300.312 385.546 300.113 390.016 295.682 387.432C273.678 390.104 264.995 399.436 249.652 405.438L230.247 398.337L232.889 387.528C232.338 378.882 224.998 370.037 234.926 361.699C235.849 355.393 235.338 348.531 242.13 344.509L236.972 297.976L270.481 299.012C274.94 296.652 279.686 296.3 284.485 296.319C281.854 301.576 283.256 306.58 289.631 311.273C294.781 332.275 294.141 352.45 295.755 372.947L301.914 383.412Z" fill="#008000" stroke="black" stroke-linecap="round"/>
<path d="M33.6476 293.318C33.0706 295.116 33.2176 296.007 35.5546 296.011C36.4986 297.143 39.8266 289.152 39.3146 297.216L42.2886 297.534C41.2806 302.013 44.3316 307.514 47.2416 308.507C50.9876 309.785 53.0586 314.121 55.1176 316.035L60.2006 325.389C63.7006 327.774 68.5236 326.04 76.0546 315.884C75.2346 312.499 79.9106 310.696 93.8906 311.572C105.342 319.823 108.775 329.449 104.505 340.395C109.627 339.158 112.492 335.666 121.031 337.847C125.288 343.211 127.923 349.131 124.383 357.168C129.098 358.929 130.799 364.106 137.382 355.386C136.933 353.387 138.559 352.666 140.629 354.201C141.882 355.131 143.976 353.72 145.952 354.21L149.43 345.25L145.167 343.529L145.98 338.821L154.694 340.593C154.027 337.381 149.685 333.202 152.902 331.012C154.343 329.529 153.677 328.368 152.214 327.331L152.395 323.225C143.945 322.214 148.768 312.865 151.684 308.126L146.505 303.419L145.91 293.061L141.64 296.209L140.042 293.823L145.745 288.606L138.045 282.755C139.317 278.658 137.601 273.745 136.205 268.634L130.783 267.455C130.867 269.789 130.058 271.556 127.677 272.321C125.644 271.71 124.398 273.01 123.937 276.217L114.328 272.24L106.699 277.771C107.666 275.292 105.189 273.821 103.631 271.973L99.4236 274.799C96.1366 275.905 95.7246 274.138 95.7636 271.918C96.4396 271.197 97.2846 270.645 97.5426 269.507C85.6756 267.664 73.2456 268.404 62.3966 261.873L58.9946 261.854L57.5166 280.263L48.2526 280.509C39.1996 283.803 34.7426 292.234 33.6476 293.318Z" fill="#008000" stroke="black" stroke-linecap="round"/>
<path d="M7.41602 266.462L8.54002 269.549C10.866 271.142 15.245 267.994 14.982 275.559C17.098 276.664 19.715 274.432 21.233 279.521C23.829 280.833 30.404 268.617 28.023 286.848L33.86 293.243C37.321 287.847 42.524 282.438 47.91 280.507L57.44 280.275L59.041 261.916L34.449 261.832C29.451 264.262 24.315 265.593 18.87 264.442C15.4 265.683 11.784 266.342 7.41602 266.462Z" fill="#008000" stroke="black" stroke-linecap="round"/>
<path d="M552.954 457.789C548.477 455.819 543.122 451.356 539.962 453.117L528.674 449.09L506.085 448.883H470.62L446.466 449.148L448.917 430.622L442.565 422.417L444.947 419.506L443.359 417.124L439.125 418.447C433.894 417.798 432.021 414.095 430.794 409.805C427.969 408.743 424.017 409.125 424.039 404.419C429.98 394.135 431.271 380.094 442.868 374.377L443.272 369.844L459.83 369.06C466.014 373.031 464.039 377.593 474.542 376.261C481.813 363.136 487.087 339.024 496.558 337.989C502.292 323.873 503.994 303.843 513.761 295.642C518.574 293.922 522.68 291.88 524.461 288.783C525.5 286.974 525.748 281.126 524.882 278.452C524.26 276.529 523.063 278.027 521.171 275.528L518.329 264.688L520.63 262.824L529.376 270.234C530.618 276.299 533.641 281.921 533.054 288.443C532.42 297.93 528.504 299.287 537.964 310.111C539.575 312.796 539.942 315.635 539.595 318.565L521.965 316.815C519.999 321.627 515.641 332.555 533.012 336.412L541.205 361.026L525.934 386.422L528.063 404.96C534.507 416.84 541.973 429.213 552.401 438.825L552.954 457.789Z" fill="#008000" stroke="black" stroke-linecap="round"/>
<path d="M154.699 410.065L140.374 405.025L89.9082 363.683L105.882 350.317L105.602 345.538L113.43 337.975C115.759 336.401 118.59 337.499 121.27 337.792C127.993 347.585 126.191 352.19 124.356 357.159C128.17 358.129 131.051 364.477 137.363 355.412C137.187 352.891 138.727 352.868 141.327 354.385V359.195C143.382 360.058 144.886 364.145 142.893 367.883C141.835 369.865 141.11 371.899 138.84 372.306L145.433 376.346C147.305 376.028 148.921 374.637 152.862 382.957C153.709 384.123 163.558 388.254 155.385 398.058L154.699 410.065Z" fill="#008000" stroke="black" stroke-linecap="round"/>
<path d="M218.865 55.1709L193.382 55.8569L194.586 202.908L201.307 205.282L196.596 219.659L121.492 215.41L112.848 221.469L108.125 219.725L104.854 210.016L100.56 208.869C92.1026 227.358 90.8046 225.207 87.6636 228.37C88.1766 230.261 86.9436 232.065 87.5516 233.797C89.4546 239.216 90.6486 244.713 87.7836 247.057C91.6956 250.54 96.7436 253.313 98.1946 258.333C98.4736 264.736 98.1246 269.675 96.4016 271.409C94.6946 273.119 96.7216 277.106 100.271 274.12L103.722 272.023C104.856 273.83 107.358 274.817 106.993 277.525L114.598 272.325L123.885 276.183C124.828 274.76 123.645 272.627 127.257 272.094C129.154 272.146 130.488 270.79 131.048 267.498L136.146 268.735C137.518 273.537 139.19 278.382 138.309 282.862L145.832 288.543L140.086 293.803L141.677 296.205L145.868 293.411L146.49 303.474L151.784 308.338C153.955 306.184 157.42 303.468 160.041 304.829C162.513 306.113 163.664 311.139 165.995 309.569C168.433 307.928 168.891 306.393 172.668 306.398C175.514 306.402 170.229 301.483 173.772 301.585C175.418 301.633 177.99 299.694 180.835 300.442C183.563 301.159 180.171 311.318 182.17 309.137C187.126 303.73 197.001 305.824 197.955 307.033C200.72 297.134 195.316 288.004 214.283 276.575L222.654 258.943C233.813 254.261 245.791 256.392 256.051 244.216C268.95 235.599 281.841 229.119 288.807 231.051L301.829 231.065L309.147 224.82L344.176 225.258C345.064 223.538 345.552 222.274 350.391 219.895C350.429 215.666 354.222 215.433 356.858 214.101L358.233 162.191L345.083 164.087C339.89 160.711 344.258 159.635 344.306 152.126C341.345 145.459 337.58 144.456 333.882 145.113C330.634 145.691 329.172 141.085 327.468 141.432C324.533 142.03 321.319 139.213 319.372 135.069C318.711 133.66 316.893 133.018 315.664 132.173C312.932 130.297 310.44 128.855 311.147 125.929C311.151 125.93 248.6 78.1539 218.865 55.1709Z" fill="#008000" stroke="black" stroke-linecap="round"/>
<path d="M358.208 162.341L356.774 214.29C354.477 215.624 351.284 214.264 350.41 219.867C347.856 221.348 344.709 222.386 344.143 225.358L309.035 225.019L301.901 231.013L288.619 231.085C288.235 233.945 288.304 237.523 290.564 239.293C292.57 240.863 292.275 244.17 291.766 247.083L308.563 269.493L314.657 271.77C318.035 268.806 321.113 267.936 322.644 277.899L343.447 280.851C344.898 277.526 344.549 272.913 348.318 271.245C353.977 268.045 353.052 262.45 355.071 257.926C359.691 255.723 356.737 252.59 381.15 252.818C387.463 256.787 393.556 258.115 400.205 266.095L405.101 266.295C405.241 264.621 410.179 261.181 413.198 260.607C416.469 258.828 422.284 261.924 430.034 268.73L443.841 269.966L457.1 260.457L480.28 259.862C483.776 261.228 486.366 264.354 491.525 263.061C495.231 258.889 502.32 254.907 510.463 251.473C509.199 247.783 507.777 244.18 508.956 239.443C510.942 237.773 513.384 237.509 513.624 231.297L541.629 200.22L546.823 150.664L550.778 140.699C542.772 137.421 537.289 134.314 535.532 123.262C534.575 117.242 535.94 109.472 535.345 98.2319L530.359 99.0869C527.622 95.8649 524.971 92.4119 521.47 91.2269L482.204 89.7969L382.721 155.384L358.208 162.341Z" fill="#008000" stroke="black" stroke-linecap="round"/>
<path d="M424.003 404.606L420.639 404.449L419.535 410.338C413.768 410.478 408.002 409.868 402.235 407.762C388.461 416.337 377.55 414.935 371.921 395.144C367.641 384.097 360.714 380.511 353.378 378.077L329.41 378.215L330.458 339.961C334.261 335.121 336.628 328.365 338.764 321.302C345.173 319.725 343.805 314.09 344.098 309.322C350.504 305.079 346.305 298.422 343.667 293.962L344.081 281.518C344.626 277.99 343.824 274.173 348.885 270.933C350.855 268.511 352.824 269.691 354.795 257.847C358.307 255.148 362.016 252.492 380.93 253.093C387.541 256.55 395.958 259.356 400.547 266.479L404.804 266.275C407.551 264.34 408.4 260.928 413.394 260.742C416.242 260.681 416.41 257.942 429.923 268.548L444.011 269.864L457.095 260.433L480.548 259.975C483.97 261.401 486.774 264.527 491.209 263.165C497.071 257.328 504.183 254.31 510.869 251.493C513.541 255.777 517.261 259.964 520.596 262.636L518.37 264.414L521.189 275.76C522.5 276.751 524.884 277.098 524.945 278.84C527.463 289.968 521.226 293.411 513.849 295.868C504.455 303.178 502.095 323.235 496.698 337.788C486.204 340.888 482.709 360.294 474.684 376.251C466.943 377.762 464.984 373.993 460.126 368.751L443.259 369.844L442.818 374.355C432.047 379.98 429.568 392.734 424.003 404.606Z" fill="#008000" stroke="black" stroke-linecap="round"/>
<path d="M21.1505 193.045C18.1605 198.185 16.1285 200.867 16.0425 205.04C15.8445 214.577 6.3255 217.616 1.5625 224.55C5.9955 231.011 10.8205 237.358 11.5715 244.902H29.9225C33.8815 239.616 39.7115 241.346 46.3525 246.119L56.9485 246.904L59.2835 249.907L51.6095 252.576C46.3575 251.454 41.6185 249.433 37.2625 246.742C34.1875 248.565 30.6705 249.654 26.2525 249.24L24.2505 252.576L8.2355 253.243C7.2915 257.581 6.4205 261.918 7.2345 266.256C11.0885 265.9 14.8415 266.465 18.9015 264.264C24.3735 265.665 29.5685 264.44 34.5915 261.584L62.2675 261.915C72.6685 267.864 85.6415 268.477 97.6515 269.259C98.2175 262.99 101.72 256.756 88.0655 247.238C90.1615 244.54 89.3775 238.333 87.5435 233.849C86.5055 231.313 88.4955 230.515 87.5525 227.808C86.2555 227.085 84.6925 225.035 82.5065 222.973C80.0625 220.665 75.1005 214.036 75.1005 214.036C72.1965 205.323 68.4505 201.759 68.4505 201.759C59.5355 203.218 54.0295 193.183 54.0295 193.183C46.4195 191.127 42.4395 192.641 39.1275 192.815C30.4795 193.268 28.7195 194.335 21.1505 193.045Z" fill="#008000" stroke="black" stroke-linecap="round"/>
<path d="M89.8831 363.763L76.7551 357.096C75.2951 353.033 71.2481 350.817 67.1191 348.659C67.5081 342.919 63.7001 341.613 61.1551 339.538L60.2891 325.836C66.0461 328.076 71.1421 322.268 76.1571 315.793C74.9081 310.748 86.3391 311.265 93.9711 311.412C101.574 318.031 109.534 324.378 104.631 340.471C107.883 339.245 110.952 337.836 114.56 336.966L105.507 345.436L105.799 350.254L89.8831 363.763Z" fill="#008000" stroke="black" stroke-linecap="round"/>
<path d="M301.879 383.465L313.797 380.027L305.889 318.032C304.879 313.306 300.185 311.212 296.602 308.323L298.501 298.191L284.448 296.372C281.817 301.629 283.219 306.633 289.594 311.327C294.744 332.329 294.104 352.504 295.718 373L301.879 383.465Z" fill="#008000" stroke="black" stroke-linecap="round"/>
<path d="M86.5011 111.642C88.5551 96.9448 79.4191 76.2898 107.966 75.7008L113.956 31.2738L164.872 35.7658L167.628 15.8008L218.943 55.2048L193.383 55.8258L194.679 202.983L201.148 205.289L196.788 219.583L121.455 215.434L112.868 221.506L108.233 219.985L104.958 210.007L100.403 208.88C100.403 208.88 92.0901 229.389 86.7981 227.315C86.7981 227.315 84.4441 224.761 81.7821 222.009C79.4361 219.586 76.8801 217.185 75.0671 213.766C72.5461 209.011 70.8011 201.377 67.3281 201.923C59.9351 203.084 54.3021 193.28 54.3021 193.28C54.3021 193.28 45.6891 190.89 39.5151 192.605C31.5351 194.821 22.5211 192.521 20.9121 193.565L28.2371 173.215L28.9841 149.494L24.5231 142.368C26.9081 138.151 34.1951 134.263 29.4321 121.638C28.8871 120.194 26.2931 120.972 26.2931 120.972L23.2171 111.691L26.9971 107.901L86.5011 111.642Z" fill="#00E000" stroke="black" stroke-linecap="round"/>
<path d="M682.36 156.756L552.181 92.6475L534.938 97.8585C536.118 108.043 535.25 115.928 535.433 122.162C535.701 131.302 542.061 137.71 550.781 140.8L546.921 150.194L541.373 200.494L514.204 230.392C513.342 232.088 512.862 233.785 512.964 235.481C512.104 237.426 510.999 238.274 509.82 238.783C507.923 239.961 508.859 241.952 508.639 243.431C507.059 254.029 529.216 269.725 529.216 269.725C530.357 274.513 532.044 278.766 532.89 283.82C533.802 289.269 531.134 295.845 531.902 300.567C533.017 307.421 540.623 308.109 539.583 318.572L522.139 316.967C517.076 327.074 520.619 333.66 533.052 336.611L541.264 361.126C554.456 358.115 563.746 359.717 580.981 351.929L596.661 350.376C599.553 345.443 605.674 342.817 603.575 334.321L625.272 331.952C626.968 330.372 627.782 327.91 630.537 327.389C634.79 327.257 636.034 324.493 637.172 321.636C639.154 316.939 644.151 315.256 647.906 312.33C648.583 296.838 660.293 301.273 667.429 298.342L666.575 292.966C662.491 288.513 658.969 283.459 657.691 269.289L650.078 270.72L649.91 263.833C652.241 261.333 653.915 255.402 653.318 251.187L656.863 249.524L655.99 240.57L666.47 227.174L666.145 220.611L684.209 219.661L682.36 156.756Z" fill="#00E000" stroke="black" stroke-linecap="round"/>
<path d="M86.5312 111.886C88.5852 97.1893 79.4482 76.5343 107.996 75.9453L113.986 31.5183L164.902 36.0103L168.772 6.01828L100.668 0.988281C94.3482 10.6893 90.6792 18.9023 81.1382 22.6863C72.1342 26.2573 68.6122 37.3693 66.0652 46.9933L39.2652 77.6593C38.3002 84.6223 34.2532 89.2743 28.8382 92.8993C23.9422 99.3043 20.9512 107.262 20.1992 114.338L27.0282 108.147L86.5312 111.886Z" fill="#00E000" stroke="black" stroke-linecap="round"/>
</svg>
